{
	"cameras":[{
		"type":"perspective",
		"perspective":{
			"znear":0.009999999776482582,
			"zfar":10000000000.0,
			"aspectRatio":2.133333444595337,
			"yfov":0.2794177532196045
		}
	}],
	"asset":{
		"version":"2.0",
		"generator":"Created using the official Cinema 4D glTF Exporter 1.000x284978"
	},
	"scenes":[{
		"nodes":[0,
		4]
	}],
	"nodes":[{
		"name":"细分曲面",
		"children":[1]
	},
	{
		"name":"空白",
		"translation":[-1.714327096939087,
		105.31547546386719,
		-72.6128158569336],
		"rotation":[0.0,
		0.0,
		0.0,
		-1.0],
		"scale":[1.0,
		1.0,
		1.0],
		"children":[2,
		3]
	},
	{
		"name":"Plane01",
		"translation":[10.142791748046875,
		-30.926931381225587,
		15.639780044555664],
		"rotation":[0.7071047425270081,
		-0.0016866350779309869,
		0.0016866350779309869,
		0.7071047425270081],
		"scale":[0.2731773853302002,
		0.2731773853302002,
		0.2731773853302002],
		"mesh":0
	},
	{
		"name":"Plane06",
		"translation":[-0.30564168095588686,
		-44.06010818481445,
		29.266157150268556],
		"rotation":[0.9920293688774109,
		-0.00002081550883303862,
		-0.00016387694631703198,
		-0.12600672245025636],
		"scale":[0.2731773853302002,
		0.2731773853302002,
		0.2731773853302002],
		"mesh":1
	},
	{
		"name":"摄像机",
		"translation":[-105.56571960449219,
		1330.8798828125,
		7276.10205078125],
		"rotation":[0.061048541218042377,
		0.0,
		0.0,
		-0.9981347918510437],
		"scale":[1.0,
		1.0,
		1.0],
		"camera":0
	}],
	"meshes":[{
		"name":"Plane01",
		"primitives":[{
			"attributes":{
				"POSITION":1,
				"NORMAL":2
			},
			"indices":0,
			"material":0
		}]
	},
	{
		"name":"Plane06",
		"primitives":[{
			"attributes":{
				"POSITION":4,
				"NORMAL":5
			},
			"indices":3,
			"material":1
		}]
	}],
	"accessors":[{
		"bufferView":0,
		"type":"SCALAR",
		"count":23604,
		"componentType":5123,
		"byteOffset":0,
		"min":[0],
		"max":[3997]
	},
	{
		"bufferView":1,
		"type":"VEC3",
		"count":3998,
		"componentType":5126,
		"byteOffset":0,
		"min":[-1798.3914794921876,
		-26.40729331970215,
		-16.35034942626953],
		"max":[1718.5963134765626,
		3300.324951171875,
		262.2579345703125]
	},
	{
		"bufferView":1,
		"type":"VEC3",
		"count":3998,
		"componentType":5126,
		"byteOffset":12,
		"min":[-0.9615584015846252,
		-0.9948335886001587,
		-0.08657357096672058],
		"max":[0.9810672402381897,
		0.7724087834358215,
		0.9999122023582459]
	},
	{
		"bufferView":2,
		"type":"SCALAR",
		"count":22884,
		"componentType":5123,
		"byteOffset":0,
		"min":[0],
		"max":[3877]
	},
	{
		"bufferView":3,
		"type":"VEC3",
		"count":3878,
		"componentType":5126,
		"byteOffset":0,
		"min":[-1775.1312255859376,
		-37.65387725830078,
		-9.272096633911133],
		"max":[1733.1729736328126,
		3267.7734375,
		262.2579345703125]
	},
	{
		"bufferView":3,
		"type":"VEC3",
		"count":3878,
		"componentType":5126,
		"byteOffset":12,
		"min":[-0.9611266851425171,
		-0.9951248168945313,
		-0.08660658448934555],
		"max":[0.9774977564811707,
		0.7741361260414124,
		0.9999122023582459]
	}],
	"buffers":[{
		"uri":"data:application/octet-stream;base64,",
		"byteLength":143160
	},
	{
		"uri":"data:application/octet-stream;base64,",
		"byteLength":138840
	}],
	"bufferViews":[{
		"buffer":0,
		"byteOffset":0,
		"byteLength":47208,
		"target":34963
	},
	{
		"buffer":0,
		"byteOffset":47208,
		"byteLength":95952,
		"target":34962,
		"byteStride":24
	},
	{
		"buffer":1,
		"byteOffset":0,
		"byteLength":45768,
		"target":34963
	},
	{
		"buffer":1,
		"byteOffset":45768,
		"byteLength":93072,
		"target":34962,
		"byteStride":24
	}],
	"materials":[{
		"pbrMetallicRoughness":{
			"baseColorFactor":[0.024000000000000005,
			0.030299999999999925,
			0.15,
			1.0],
			"metallicFactor":1.0,
			"roughnessFactor":0.1
		},
		"emissiveFactor":[1.0,
		1.0,
		1.0],
		"alphaMode":"OPAQUE",
		"doubleSided":true,
		"name":"材质.3"
	},
	{
		"pbrMetallicRoughness":{
			"baseColorFactor":[0.024000000000000005,
			0.030299999999999925,
			0.15,
			1.0],
			"metallicFactor":1.0,
			"roughnessFactor":0.1
		},
		"emissiveFactor":[1.0,
		1.0,
		1.0],
		"alphaMode":"OPAQUE",
		"doubleSided":true,
		"name":"材质"
	}]
}